<?xml version="1.0" standalone="no"?>
<!DOCTYPE svg PUBLIC "-//W3C//DTD SVG 20010904//EN"
 "http://www.w3.org/TR/2001/REC-SVG-20010904/DTD/svg10.dtd">
<svg version="1.0" xmlns="http://www.w3.org/2000/svg"
 width="360.000000pt" height="360.000000pt" viewBox="0 0 360.000000 360.000000"
 preserveAspectRatio="xMidYMid meet">

<g transform="translate(0.000000,360.000000) scale(0.100000,-0.100000)"
fill="#000000" stroke="none">
<path d="M2701 2686 c-60 -25 -113 -53 -125 -68 -12 -13 -37 -34 -56 -46 -38
-22 -80 -86 -80 -120 0 -11 -6 -24 -12 -30 -7 -6 -89 -15 -183 -21 -93 -6
-294 -20 -445 -31 -151 -11 -414 -29 -583 -40 -170 -12 -318 -25 -330 -29 -12
-5 -31 -18 -41 -30 -19 -20 -19 -27 -7 -99 12 -72 155 -527 188 -600 32 -68
14 -66 661 -72 563 -5 584 -6 598 -24 21 -29 17 -63 -8 -80 -20 -14 -91 -16
-576 -16 -362 0 -560 -4 -573 -10 -10 -6 -19 -17 -19 -25 0 -23 32 -34 93 -31
49 2 57 0 51 -13 -16 -35 -16 -99 1 -130 48 -93 192 -93 240 0 17 32 17 95 1
132 -8 16 7 17 237 17 l246 0 -15 -37 c-19 -45 -13 -91 17 -132 46 -63 146
-69 203 -12 28 28 31 38 31 89 0 31 -4 64 -8 72 -6 13 4 18 52 28 72 15 101
45 101 103 0 51 -15 82 -51 103 -16 9 -29 25 -29 34 0 9 36 148 81 307 44 160
96 355 115 434 49 201 64 225 134 223 37 -2 222 64 258 91 18 14 15 71 -6 90
-27 24 -45 21 -161 -27z m-297 -398 c-9 -35 -18 -76 -21 -91 -7 -36 -26 -43
-135 -50 -102 -7 -97 -15 -70 108 l18 80 50 6 c27 3 77 7 111 7 l61 2 -14 -62z
m-258 35 c-2 -10 -12 -55 -22 -100 -19 -95 -8 -88 -172 -99 l-102 -7 5 59 c8
80 16 144 18 145 2 1 126 10 250 17 23 2 27 -2 23 -15z m-332 -100 c-3 -54 -9
-101 -13 -105 -12 -12 -255 -28 -262 -17 -7 12 -22 189 -16 195 3 4 191 19
265 23 l33 1 -7 -97z m-340 35 c3 -18 8 -63 11 -100 l6 -67 -33 -5 c-18 -3
-70 -8 -115 -11 -95 -7 -90 -12 -118 105 -9 36 -18 73 -21 82 -5 18 21 22 188
26 l77 2 5 -32z m-293 -85 l27 -102 -27 -5 c-14 -3 -75 -6 -136 -8 l-110 -3
-22 65 c-42 123 -32 138 102 150 147 14 136 20 166 -97z m1176 -75 c-2 -7 -19
-66 -38 -130 l-33 -117 -93 -3 c-82 -3 -93 -1 -93 14 0 21 42 221 47 228 5 5
105 15 177 18 27 2 37 -2 33 -10z m-286 -133 l-26 -125 -107 0 -108 0 6 63 c2
34 7 85 10 114 l5 52 42 6 c43 5 104 10 168 13 l36 2 -26 -125z m-275 28 c-3
-42 -6 -96 -6 -120 l0 -43 -114 0 -115 0 -5 43 c-3 23 -8 72 -11 108 l-5 66
117 10 c65 5 124 10 132 11 11 2 13 -12 7 -75z m-296 14 c0 -19 3 -69 6 -111
l7 -77 -103 3 -104 3 -17 80 c-10 44 -18 90 -18 102 -1 23 -1 24 182 31 l47 2
0 -33z m-270 -44 c7 -32 16 -76 20 -98 5 -22 7 -41 5 -44 -2 -2 -56 -6 -119
-9 l-114 -5 -15 29 c-8 16 -23 56 -32 89 -10 33 -20 65 -22 72 -5 12 4 13 214
21 l52 2 11 -57z m1036 -180 c-3 -10 -15 -58 -27 -108 -12 -49 -26 -96 -32
-102 -12 -16 -177 -18 -177 -3 0 6 12 57 26 115 30 118 22 111 142 114 66 1
73 -1 68 -16z m-236 0 c0 -4 -12 -55 -26 -115 l-26 -108 -84 0 -84 0 5 63 c9
107 15 148 21 158 6 10 194 13 194 2z m-517 -13 c2 -3 7 -51 10 -107 l6 -103
-83 0 -84 0 -16 72 c-9 40 -19 89 -22 108 l-6 35 95 0 c53 0 97 -2 100 -5z
m264 -57 c-4 -38 -7 -87 -7 -110 l0 -43 -95 0 c-110 0 -100 -12 -109 133 l-6
87 111 0 112 0 -6 -67z m-502 35 c12 -54 35 -170 35 -180 0 -8 -29 -9 -92 -4
-77 6 -97 11 -114 29 -19 20 -74 144 -74 167 0 6 47 10 120 10 116 0 120 -1
125 -22z m155 -460 c46 -50 13 -128 -55 -128 -45 0 -75 29 -75 73 0 45 31 77
75 77 22 0 41 -8 55 -22z m695 16 c23 -9 47 -61 39 -87 -11 -38 -35 -57 -72
-57 -71 0 -105 68 -61 124 20 26 57 34 94 20z"/>
</g>
</svg>
